<svg width="27" height="17" viewBox="0 0 27 17" fill="none" xmlns="http://www.w3.org/2000/svg">
<path d="M0.0736084 0.366943H26.0101V16.2635H0.0736084V0.366943Z" fill="#1E50A0"/>
<path d="M14.7152 5.32666V6.64189H18.9742L26.0101 2.32933V0.366943H22.8082L14.7152 5.32666Z" fill="white"/>
<path d="M26.0101 0.366943H24.4092L14.7152 6.30848V6.64189H16.1718L26.0101 0.612085V0.366943Z" fill="#D22F27"/>
<path d="M22.8086 16.2635H26.0101V14.3007L18.9746 9.98853H14.7152V11.3033L22.8086 16.2635Z" fill="white"/>
<path d="M26.0101 16.2635V15.2817L17.3736 9.98853H15.3711L25.6093 16.2635H26.0101Z" fill="#D22F27"/>
<path d="M11.3685 11.3038V9.98853H7.1095L0.0736084 14.3011V16.2635H3.27551L11.3685 11.3038Z" fill="white"/>
<path d="M0.0736084 16.2635H1.67456L11.3685 10.3219V9.98853H9.91189L0.0736084 16.0183V16.2635Z" fill="#D22F27"/>
<path d="M3.27509 0.366943H0.0736084V2.32975L7.10908 6.64189H11.3685V5.32708L3.27509 0.366943Z" fill="white"/>
<path d="M0.0736084 0.366943V1.34876L8.71045 6.64189H10.7126L0.474368 0.366943H0.0736084Z" fill="#D22F27"/>
<path d="M0.0736084 6.22357H26.0101V10.4069H0.0736084V6.22357Z" fill="white"/>
<path d="M10.9502 0.366943H15.1335V16.2635H10.9502V0.366943Z" fill="white"/>
<path d="M0.0736084 7.06024H26.0101V9.57022H0.0736084V7.06024Z" fill="#D22F27"/>
<path d="M11.7869 0.366943H14.2968V16.2635H11.7869V0.366943Z" fill="#D22F27"/>
</svg>
