<svg width="17" height="13" viewBox="0 0 17 13" fill="none" xmlns="http://www.w3.org/2000/svg">
<g clip-path="url(#clip0_44_72)">
<path fill-rule="evenodd" clip-rule="evenodd" d="M8.23354 1.75C8.23354 1.55109 8.31255 1.36032 8.45321 1.21967C8.59386 1.07902 8.78463 1 8.98354 1H14.9835C15.1825 1 15.3732 1.07902 15.5139 1.21967C15.6545 1.36032 15.7335 1.55109 15.7335 1.75V7.75C15.7335 7.94891 15.6545 8.13968 15.5139 8.28033C15.3732 8.42098 15.1825 8.5 14.9835 8.5C14.7846 8.5 14.5939 8.42098 14.4532 8.28033C14.3126 8.13968 14.2335 7.94891 14.2335 7.75V3.85L8.81404 10.4755C8.74769 10.5565 8.66513 10.6227 8.57166 10.6698C8.4782 10.717 8.37589 10.744 8.27134 10.7493C8.16678 10.7545 8.06229 10.7378 7.96459 10.7002C7.86688 10.6626 7.77813 10.605 7.70404 10.531L3.82354 6.6505L-1.66046 14.191C-1.78043 14.3435 -1.95486 14.4437 -2.14709 14.4703C-2.33932 14.4969 -2.53439 14.448 -2.6913 14.3338C-2.84822 14.2196 -2.95476 14.049 -2.98855 13.8579C-3.02233 13.6668 -2.98072 13.4701 -2.87246 13.309L3.12754 5.059C3.19122 4.97127 3.27317 4.89839 3.36773 4.84538C3.46229 4.79237 3.56722 4.76049 3.67529 4.75194C3.78336 4.74338 3.892 4.75836 3.99373 4.79583C4.09545 4.8333 4.18784 4.89238 4.26454 4.969L8.17804 8.884L13.401 2.5H8.98354C8.78463 2.5 8.59386 2.42098 8.45321 2.28033C8.31255 2.13968 8.23354 1.94891 8.23354 1.75Z" fill="#F8F9FB"/>
</g>
<defs>
<clipPath id="clip0_44_72">
<rect width="17" height="13" fill="white"/>
</clipPath>
</defs>
</svg>
