<svg width="25" height="23" viewBox="0 0 25 23" fill="none" xmlns="http://www.w3.org/2000/svg">
<g clip-path="url(#clip0_13_15)">
<path fill-rule="evenodd" clip-rule="evenodd" d="M12.5357 6.08614C12.5357 7.56625 11.322 8.76514 9.84188 8.76514C9.42745 8.76514 9.02782 8.67634 8.67259 8.49873C8.8354 8.86876 8.92421 9.25363 8.93901 9.65326C8.93901 11.1334 7.72532 12.3323 6.23041 12.3323C4.7355 12.3323 3.53661 11.1334 3.53661 9.65326C3.53661 8.17315 4.7355 6.97417 6.23041 6.97417C6.64484 6.98897 7.02967 7.07786 7.3997 7.24067C7.22208 6.88544 7.13328 6.50057 7.13328 6.08614C7.13328 4.60603 8.34697 3.40714 9.84188 3.40714C11.322 3.40714 12.5357 4.60603 12.5357 6.08614ZM24.5098 15.8993C24.5098 15.4997 20.5875 11.829 20.0694 11.311C19.9658 11.2222 19.8622 11.1777 19.7438 11.1777C19.4182 11.1777 18.1305 12.4506 18.1305 12.7763C18.1305 13.1463 19.4478 14.2711 19.7438 14.5671L18.3969 15.8993L13.3941 10.9557C14.4894 9.49036 15.2443 7.69943 15.2443 5.86409C15.2443 2.82986 13.1129 0.728146 10.0639 0.728146C5.44595 0.728146 0.828003 5.30168 0.828003 9.87522C0.828003 12.9094 2.94456 15.0113 6.00839 15.0113C7.85853 15.0113 9.66426 14.2711 11.1444 13.1758L20.5875 22.5302C20.8391 22.7818 21.1943 22.9298 21.5496 22.9298C22.334 22.9298 23.2369 22.0269 23.2369 21.2573C23.2369 20.9021 23.0889 20.5616 22.8373 20.31L19.7438 17.2314L21.0907 15.8993C21.3867 16.1953 22.5264 17.4978 22.8965 17.4978C23.2221 17.4978 24.5098 16.2249 24.5098 15.8993Z" fill="white"/>
</g>
<defs>
<clipPath id="clip0_13_15">
<rect width="23.6818" height="22.2017" fill="white" transform="translate(0.828003 0.728149)"/>
</clipPath>
</defs>
</svg>
