<svg width="17" height="13" viewBox="0 0 17 13" fill="none" xmlns="http://www.w3.org/2000/svg">
<g clip-path="url(#clip0_44_74)">
<path d="M11.635 6.50035C11.635 8.43752 10.2328 10.0054 8.50031 10.0054C6.76784 10.0054 5.36564 8.43752 5.36564 6.50035C5.36564 4.56318 6.76784 2.99529 8.50031 2.99529C10.2328 2.99529 11.635 4.56318 11.635 6.50035ZM8.0525 5.4989V7.50179H7.8286C7.5823 7.50179 7.38078 7.72712 7.38078 8.00251C7.38078 8.27791 7.5823 8.50324 7.8286 8.50324H9.17203C9.41832 8.50324 9.61984 8.27791 9.61984 8.00251C9.61984 7.72712 9.41832 7.50179 9.17203 7.50179H8.94812V4.99818C8.94812 4.72279 8.74661 4.49746 8.50031 4.49746H8.0525C7.80621 4.49746 7.60469 4.72279 7.60469 4.99818C7.60469 5.27358 7.80621 5.4989 8.0525 5.4989ZM0.439725 0.491681C-0.549656 0.491681 0.439725 -0.614602 0.439725 0.491681H16.5609C16.5609 -0.614602 17.5489 0.491681 16.5609 0.491681V12.509C17.5489 12.509 16.5609 13.6137 16.5609 12.509H0.439725C0.439725 13.6137 -0.549656 12.509 0.439725 12.509V0.491681ZM1.78316 3.99674V9.00396C2.77254 9.00396 3.5744 9.90213 3.5744 11.0068H13.4262C13.4262 9.90213 14.2295 9.00396 15.2175 9.00396V3.99674C14.2295 3.99674 13.4262 3.09857 13.4262 1.99385H3.5744C3.5744 3.09857 2.77254 3.99674 1.78316 3.99674Z" fill="#F8F9FB"/>
</g>
<defs>
<clipPath id="clip0_44_74">
<rect width="17" height="13" fill="white"/>
</clipPath>
</defs>
</svg>
