<svg width="27" height="24" viewBox="0 0 27 24" fill="none" xmlns="http://www.w3.org/2000/svg">
<g clip-path="url(#clip0_44_74)">
<path d="M18.7499 12C18.7499 14.9016 16.4014 17.25 13.4999 17.25C10.5983 17.25 8.24989 14.9016 8.24989 12C8.24989 9.09844 10.5983 6.75001 13.4999 6.75001C16.4014 6.75001 18.7499 9.09844 18.7499 12ZM12.7499 10.5V13.5H12.3749C11.9624 13.5 11.6249 13.8375 11.6249 14.25C11.6249 14.6625 11.9624 15 12.3749 15H14.6249C15.0374 15 15.3749 14.6625 15.3749 14.25C15.3749 13.8375 15.0374 13.5 14.6249 13.5H14.2499V9.75001C14.2499 9.33751 13.9124 9.00001 13.4999 9.00001H12.7499C12.3374 9.00001 11.9999 9.33751 11.9999 9.75001C11.9999 10.1625 12.3374 10.5 12.7499 10.5ZM-0.000113964 3.00001C-1.65715 3.00001 -0.000113964 1.34298 -0.000113964 3.00001H26.9999C26.9999 1.34298 28.6546 3.00001 26.9999 3.00001V21C28.6546 21 26.9999 22.6547 26.9999 21H-0.000113964C-0.000113964 22.6547 -1.65715 21 -0.000113964 21V3.00001ZM2.24989 8.25001V15.75C3.90692 15.75 5.24989 17.0953 5.24989 18.75H21.7499C21.7499 17.0953 23.0952 15.75 24.7499 15.75V8.25001C23.0952 8.25001 21.7499 6.9047 21.7499 5.25001H5.24989C5.24989 6.9047 3.90692 8.25001 2.24989 8.25001Z" fill="#FBCF71"/>
</g>
<defs>
<clipPath id="clip0_44_74">
<rect width="27" height="24" fill="white"/>
</clipPath>
</defs>
</svg>
