<svg width="14" height="14" viewBox="0 0 14 14" fill="none" xmlns="http://www.w3.org/2000/svg">
<path fill-rule="evenodd" clip-rule="evenodd" d="M14.0001 7.76286V6.16962L13.7751 6.09609L12.0697 5.53934L11.6146 4.44049L12.4892 2.58958L11.3625 1.46293L11.1515 1.57016L9.55203 2.38251L8.45347 1.92748L7.76292 -0.000378H6.16972L6.09629 0.22484L5.53962 1.93042L4.44122 2.38556L2.58948 1.51063L1.46324 2.63728L1.57024 2.84827L2.38283 4.44821L1.92802 5.54638L-0.000168 6.23683V7.83016L0.225008 7.90355L1.93053 8.46045L2.38568 9.559L1.51102 11.4102L2.63726 12.5369L2.84843 12.4294L4.448 11.6172L5.54662 12.0723L6.237 13.9999H7.83009L7.90369 13.7748L8.46059 12.0694L9.55921 11.6141L11.4103 12.4892L12.537 11.3623L12.43 11.1512L11.6176 9.55172L12.0726 8.45316L14.0001 7.76286ZM7.00015 9.2307C5.768 9.2307 4.76927 8.23189 4.76927 6.99975C4.76927 5.76765 5.768 4.76869 7.00015 4.76869C8.2322 4.76869 9.23094 5.76765 9.23094 6.99975C9.23094 8.23189 8.2322 9.2307 7.00015 9.2307Z" fill="white"/>
<path fill-rule="evenodd" clip-rule="evenodd" d="M14.0001 7.76286V6.16962L13.7751 6.09609L12.0697 5.53934L11.6146 4.44049L12.4892 2.58958L11.3625 1.46293L11.1515 1.57016L9.55203 2.38251L8.45347 1.92748L7.76292 -0.000378H6.16972L6.09629 0.22484L5.53962 1.93042L4.44122 2.38556L2.58948 1.51063L1.46324 2.63728L1.57024 2.84827L2.38283 4.44821L1.92802 5.54638L-0.000168 6.23683V7.83016L0.225008 7.90355L1.93053 8.46045L2.38568 9.559L1.51102 11.4102L2.63726 12.5369L2.84843 12.4294L4.448 11.6172L5.54662 12.0723L6.237 13.9999H7.83009L7.90369 13.7748L8.46059 12.0694L9.55921 11.6141L11.4103 12.4892L12.537 11.3623L12.43 11.1512L11.6176 9.55172L12.0726 8.45316L14.0001 7.76286ZM7.00015 9.2307C5.768 9.2307 4.76927 8.23189 4.76927 6.99975C4.76927 5.76765 5.768 4.76869 7.00015 4.76869C8.2322 4.76869 9.23094 5.76765 9.23094 6.99975C9.23094 8.23189 8.2322 9.2307 7.00015 9.2307Z" fill="white"/>
</svg>
