<svg width="13" height="13" viewBox="0 0 13 13" fill="none" xmlns="http://www.w3.org/2000/svg">
<path d="M13 6.5C13 8.22391 12.3152 9.87721 11.0962 11.0962C9.87721 12.3152 8.22391 13 6.5 13C4.77609 13 3.12279 12.3152 1.90381 11.0962C0.68482 9.87721 0 8.22391 0 6.5C0 4.77609 0.68482 3.12279 1.90381 1.90381C3.12279 0.68482 4.77609 0 6.5 0C8.22391 0 9.87721 0.68482 11.0962 1.90381C12.3152 3.12279 13 4.77609 13 6.5V6.5ZM4.4655 4.90181H5.13581C5.24794 4.90181 5.33731 4.81 5.35194 4.69869C5.42506 4.16569 5.79069 3.77731 6.44231 3.77731C6.99969 3.77731 7.50994 4.056 7.50994 4.72631C7.50994 5.24225 7.20606 5.4795 6.72587 5.84025C6.17906 6.23756 5.746 6.7015 5.77688 7.45469L5.77931 7.631C5.78017 7.68431 5.80194 7.73514 5.83994 7.77253C5.87794 7.80993 5.92912 7.83088 5.98244 7.83087H6.64137C6.69525 7.83087 6.74691 7.80947 6.78501 7.77138C6.8231 7.73329 6.8445 7.68162 6.8445 7.62775V7.54244C6.8445 6.95906 7.06631 6.78925 7.66513 6.33506C8.15994 5.95887 8.67588 5.54125 8.67588 4.66456C8.67588 3.43688 7.63913 2.84375 6.50406 2.84375C5.47463 2.84375 4.34688 3.32312 4.26969 4.70112C4.26858 4.72736 4.27284 4.75355 4.28223 4.77808C4.29161 4.80261 4.30591 4.82496 4.32425 4.84376C4.34259 4.86256 4.36458 4.8774 4.38887 4.88739C4.41317 4.89737 4.43924 4.90228 4.4655 4.90181V4.90181ZM6.35456 10.1367C6.85019 10.1367 7.19063 9.81662 7.19063 9.38356C7.19063 8.93506 6.84938 8.61981 6.35456 8.61981C5.88006 8.61981 5.53475 8.93506 5.53475 9.38356C5.53475 9.81662 5.88006 10.1367 6.35538 10.1367H6.35456Z" fill="#F8F9FB"/>
</svg>
