<svg width="15" height="13" viewBox="0 0 15 13" fill="none" xmlns="http://www.w3.org/2000/svg">
<path fill-rule="evenodd" clip-rule="evenodd" d="M13.9251 4.33492V1.0868C13.9251 0.49465 13.4398 0.004121 12.8539 0.004121C11.2472 1.35745 8.56927 3.25224 5.35582 3.25224H1.33891C0.602505 3.25224 -7.5e-05 3.8612 -7.5e-05 4.60561V6.22965C-7.5e-05 6.97408 0.602505 7.58303 1.33891 7.58303H2.35984C1.77408 9.48641 2.49372 10.9919 2.97914 12.4976C3.74907 13.2166 5.90811 13.1998 6.42693 12.1677C5.53989 11.4656 4.78677 10.7804 5.37254 9.80772C4.71977 9.13107 5.06289 7.95512 6.05875 7.61697C8.96262 7.86223 11.3644 9.5793 12.8539 10.8313C13.4398 10.8313 13.9251 10.3407 13.9251 9.74852V6.50035C14.5193 6.50035 14.9963 6.01818 14.9963 5.41758C14.9963 4.81709 14.5193 4.33492 13.9251 4.33492ZM12.8539 9.44402C10.6698 7.75225 8.55256 6.79636 6.42693 6.55959V4.27582C8.55256 4.0389 10.6698 3.06608 12.8539 1.37445V9.44402Z" fill="white"/>
</svg>
