<svg width="24" height="24" viewBox="0 0 24 24" fill="none" xmlns="http://www.w3.org/2000/svg">
<path d="M1.5 13.4953C1.5 7.69687 6.20157 3 12 3C17.7984 3 22.5 7.69687 22.5 13.4953C22.5036 16.0607 21 18 19.5 18H3.5C3.5 18 1.49645 16.0607 1.5 13.4953Z" fill="white"/>
<path d="M15.286 10.8703L13.0594 14.4094C12.9683 14.5356 12.8575 14.6464 12.7313 14.7375C12.4265 14.9501 12.0502 15.034 11.684 14.9708C11.3178 14.9077 10.9912 14.7027 10.7752 14.4003C10.5592 14.0979 10.4712 13.7225 10.5303 13.3557C10.5893 12.9888 10.7907 12.66 11.0907 12.4406L14.6297 10.2141C14.7102 10.158 14.8059 10.1279 14.9039 10.1279C15.002 10.1279 15.0977 10.158 15.1782 10.2141C15.2792 10.287 15.3472 10.397 15.3674 10.52C15.3876 10.6429 15.3584 10.7689 15.286 10.8703Z" fill="black"/>
<path d="M12 6V6.5M19.5 13.5H19M5 13.5H4.5M7 8.5L6.69656 8.19656M17 8.5L17.3034 8.19656" stroke="black" stroke-width="1.5" stroke-miterlimit="10" stroke-linecap="square"/>
</svg>
