<svg width="16" height="16" viewBox="0 0 16 16" fill="none" xmlns="http://www.w3.org/2000/svg">
<path d="M13.6574 10.6553C14.3885 11.3433 14.9709 12.1591 15.3723 13.0573C15.768 13.9397 15.9787 14.8744 15.9999 15.8352C16.0005 15.8566 15.9965 15.878 15.9882 15.8979C15.9799 15.9179 15.9675 15.9361 15.9516 15.9515C15.9358 15.9669 15.9168 15.9791 15.8959 15.9874C15.8749 15.9957 15.8525 16 15.8297 16H14.5531H7.90057H0.170265C0.14755 16 0.125063 15.9957 0.104129 15.9874C0.0831961 15.9791 0.0642397 15.9669 0.0483771 15.9515C0.0325146 15.9361 0.020067 15.9179 0.0117677 15.8979C0.00346834 15.878 -0.000514675 15.8566 5.32039e-05 15.8352C0.0195891 14.8805 0.232652 13.9382 0.627709 13.0593C1.02984 12.1615 1.61219 11.3459 2.34259 10.6573C3.07663 9.96181 3.93194 9.41708 4.88513 9.03719C4.89364 9.03317 4.90215 9.03115 4.91066 9.02713C3.58514 8.1206 2.72344 6.64724 2.72344 4.98492C2.72344 2.23116 5.08513 0 8 0C10.9149 0 13.2766 2.23116 13.2766 4.98492C13.2766 6.64724 12.4149 8.1206 11.0893 9.02513C11.0979 9.02915 11.1064 9.03116 11.1149 9.03518C12.0651 9.41508 12.9285 9.96524 13.6574 10.6553Z" fill="white"/>
</svg>
